<?xml version="1.0" encoding="utf-8"?>
<!-- Generator: Adobe Illustrator 27.5.0, SVG Export Plug-In . SVG Version: 6.00 Build 0)  -->
<svg version="1.1" id="Capa_1" xmlns="http://www.w3.org/2000/svg" xmlns:xlink="http://www.w3.org/1999/xlink" x="0px" y="0px"
	 viewBox="0 0 2122 2122" style="enable-background:new 0 0 2122 2122;" xml:space="preserve">
<path style="fill:#4B9334;" d="M1885.503,727.289c-8.474-3.603-18.112-3.206-27.224-1.826c-1.664,0.255-3.316,0.542-4.948,0.858
	c-0.001,0-0.001,0-0.001,0v-0.001c-26.489,4.982-51.282,17.157-76.835,25.936c-12.233,4.202-24.638,7.636-37.491,9.11
	c-8.659,0.99-18.198,0.474-26.341-2.412c-2.486-0.881-4.826-1.988-6.973-3.358c-1.134-0.722-2.179-1.542-3.189-2.413
	c-2.268-1.955-4.3-4.183-5.784-6.958c-0.412-0.769-0.77-1.551-1.09-2.34c-3.042-7.493-2.117-15.844,0.791-23.789
	c0.805-2.201,1.789-4.357,2.855-6.469c0.463-0.917,0.944-1.819,1.445-2.713c1.106-1.973,2.273-3.9,3.509-5.72
	c2.196-3.24,4.554-6.34,6.991-9.371c14.604-18.171,33.155-32.919,51.615-47.742c20.517-16.474,40.884-33.079,55.456-54.705
	c0.872-1.295,1.72-2.641,2.526-4.027c0.806-1.385,1.571-2.811,2.276-4.264c0.022-0.047,0.051-0.092,0.073-0.139
	c0.105-0.216,0.181-0.441,0.281-0.657c2.673-5.729,4.383-11.848,3.927-17.684c-0.235-3.028-1.047-5.978-2.595-8.752
	c-0.647-1.161-1.387-2.193-2.184-3.149c-0.043-0.051-0.073-0.118-0.117-0.169c-0.317-0.374-0.68-0.681-1.017-1.024
	c-0.348-0.353-0.679-0.733-1.049-1.054c-0.505-0.44-1.054-0.812-1.597-1.193c-0.301-0.212-0.58-0.459-0.891-0.653
	c-0.864-0.538-1.77-1.006-2.709-1.415c-0.359-0.157-0.744-0.264-1.114-0.403c-0.614-0.229-1.223-0.466-1.861-0.648
	c-0.44-0.124-0.899-0.206-1.35-0.308c-0.596-0.135-1.189-0.277-1.802-0.375c-0.486-0.076-0.987-0.118-1.481-0.172
	c-0.603-0.065-1.203-0.133-1.818-0.165c-0.516-0.027-1.041-0.026-1.565-0.03c-0.612-0.005-1.223-0.007-1.842,0.018
	c-0.539,0.022-1.082,0.064-1.625,0.108c-0.619,0.05-1.237,0.106-1.861,0.184c-0.55,0.068-1.104,0.15-1.659,0.239
	c-0.623,0.1-1.242,0.211-1.867,0.335c-0.557,0.111-1.115,0.231-1.671,0.361c-0.625,0.147-1.247,0.307-1.871,0.476
	c-0.552,0.15-1.103,0.302-1.651,0.469c-0.63,0.192-1.253,0.4-1.878,0.614c-0.534,0.183-1.068,0.362-1.598,0.56
	c-0.636,0.237-1.262,0.495-1.89,0.753c-0.503,0.207-1.009,0.408-1.506,0.628c-0.657,0.29-1.296,0.603-1.938,0.914
	c-0.45,0.218-0.905,0.426-1.346,0.654c-0.715,0.368-1.405,0.759-2.096,1.151c-0.347,0.196-0.705,0.381-1.045,0.583
	c-1.022,0.606-2.016,1.234-2.971,1.885c-4.822,3.291-9.333,6.937-13.705,10.744c-39.862,34.713-63.178,88.354-108.447,116.361
	c-1.472,0.911-3.078,1.704-4.669,2.507c-2.872,1.449-5.847,2.78-8.966,3.831c-1.848,0.622-3.714,1.193-5.601,1.646
	c-1.882,0.451-3.773,0.813-5.659,1.076c-13.198,1.843-26.066-1.151-32.529-12.314c-5.242-9.054-3.999-20.147-1.944-30.588
	c0.242-1.235,0.492-2.466,0.749-3.678c1.029-4.878,2.063-9.753,3.094-14.631c4.31-20.401,8.623-40.798,12.942-61.206
	c0.619-2.939,1.231-5.904,1.786-8.879c0.2-1.073,0.379-2.148,0.559-3.224c1.493-8.926,2.211-17.929,0.335-26.722
	c-0.068-0.319-0.191-0.631-0.266-0.948c-0.302-1.258-0.624-2.514-1.055-3.746c-0.197-0.563-0.473-1.098-0.696-1.652
	c-0.39-0.968-0.759-1.945-1.225-2.88c-0.313-0.627-0.701-1.208-1.047-1.815c-0.466-0.818-0.903-1.651-1.425-2.428
	c-0.422-0.629-0.916-1.194-1.375-1.792c-0.53-0.691-1.033-1.404-1.608-2.049c-0.519-0.579-1.101-1.08-1.654-1.617
	c-0.597-0.58-1.169-1.187-1.805-1.713c-0.592-0.488-1.24-0.885-1.864-1.322c-0.672-0.471-1.323-0.97-2.031-1.376
	c-0.651-0.373-1.35-0.644-2.029-0.958c-0.747-0.346-1.477-0.72-2.257-0.989c-0.701-0.242-1.442-0.372-2.167-0.547
	c-0.681-0.165-1.332-0.41-2.033-0.513l-0.873-0.112c-0.002,0-0.003,0-0.004,0c-14.934-1.604-27.6,11.064-34.855,24.22
	c-3.034,5.504-5.47,11.171-7.519,16.943c-15.865,44.692-4.887,96.676-7.788,145.3c-0.018,0.302-0.021,0.608-0.04,0.909
	c-0.035,0.566-0.112,1.154-0.153,1.722c-1.951,27.411-9.373,57.862-19.391,83.882c-0.767,1.994-1.515,4.025-2.311,5.962
	c-8.617,20.955-21.532,34.955-36.24,49.002c-2.036,1.945-4.104,3.889-6.201,5.854c0,0,0,0,0,0c-3.809,3.554-7.715,7.19-11.67,10.999
	c-16.044,15.44-31.965,30.981-48.331,46.125c-34.405,31.839-74.519,72.187-121.66,83.854c-35.932,8.88-68.235-11.806-100.06-28.404
	c3.137-4.917,6.383-9.802,9.804-14.621c0.507-0.714,1.033-1.419,1.546-2.131c1.711-2.376,3.445-4.741,5.215-7.089
	c0.704-0.934,1.418-1.862,2.13-2.792c1.645-2.146,3.307-4.28,4.994-6.399c0.743-0.934,1.487-1.868,2.238-2.798
	c1.762-2.181,3.544-4.342,5.342-6.493c0.666-0.796,1.325-1.598,1.995-2.389c2.275-2.689,4.572-5.353,6.894-7.99
	c0.184-0.209,0.364-0.423,0.549-0.633c2.542-2.88,5.107-5.724,7.688-8.537c0.698-0.76,1.402-1.504,2.101-2.258
	c1.823-1.968,3.648-3.924,5.482-5.855c1.033-1.088,2.067-2.162,3.103-3.237c1.476-1.534,2.95-3.057,4.427-4.565
	c1.222-1.246,2.442-2.487,3.662-3.716c0.953-0.959,1.901-1.902,2.853-2.849c2.56-2.554,5.116-5.065,7.662-7.536
	c0.892-0.866,1.778-1.734,2.667-2.589c3.214-3.093,6.414-6.139,9.567-9.086c29.557-27.629,64.65-54.836,79.984-93.343
	c0.587-1.478,1.116-2.995,1.647-4.51c0.93-2.65,1.799-5.334,2.528-8.092c0.473-1.793,0.886-3.587,1.239-5.348
	c0.125-0.611,0.201-1.208,0.313-1.815c0.119-0.656,0.235-1.312,0.339-1.963c0.374-2.355,0.682-4.695,0.857-7
	c0.003-0.026,0.008-0.052,0.01-0.078c0,0-0.001,0-0.001-0.001c2.021-26.833-9.19-50.108-26.272-69.92
	c12.961-39.231,8.354-86.698-9.094-122.14c-5.574-11.323-12.716-22.227-22.879-29.708c-21.091-15.522-51.835-12.814-73.847,1.364
	c-21.337,13.74-35.479,36.287-45.022,59.86c-14.008-4.22-28.279-7.508-42.715-9.753c-16.87-38.007-52.571-65.126-92.25-74.018
	c-30.726-6.882-63.79-2.866-92.197,15.42c-43.656,28.096-74.337,96.846-64.709,152.356c-44.647,35.66-84.754,77.014-119.288,122.507
	c-10.214,13.46-20.177,27.516-29.797,42.039c-34.759-32.848-72.914-62.531-79.942-69.77
	c-71.966-73.966-107.946-181.466-94.962-283.875c2.11-16.665,5.584-33.554,13.983-48.107c8.555-14.794,21.695-26.334,35.186-36.84
	c47.649-37.014,102.806-64.363,161.106-79.885c12.429-3.318,25.856-6.587,34.329-16.268c10.685-12.207,9.905-31.03,3.635-45.997
	c-3.571-8.523-9.363-16.41-16.441-22.585c0.001-0.002,0.003-0.005,0.003-0.007c-8.959-7.849-19.985-12.879-31.181-13.059
	c-0.402-0.007-0.8-0.078-1.202-0.072c-0.531,0.008-1.061,0.119-1.591,0.15c-3.341,0.194-6.683,0.749-9.977,1.906
	c-1.308,0.462-2.529,1.069-3.761,1.654c-11.793,5.588-20.373,16.455-28.749,26.914c-0.904,1.127-1.806,2.257-2.71,3.365
	c-19.508,23.904-43.52,44.087-70.299,59.426c-14.012,8.025-28.767,14.749-44.063,19.934c-8.351,2.821-18.012,5.096-25.603,0.604
	c-3.788-2.241-6.241-5.719-7.818-9.744c-2.266-5.787-2.662-12.737-2.145-19.046c1.751-21.792,9.352-42.367,17.285-62.881
	c3.787-9.788,7.648-19.561,10.987-29.443c10.344-30.602,15.201-66.243-1.846-93.688c-1.057-1.704-2.233-3.331-3.5-4.886
	c-0.236-0.29-0.516-0.543-0.76-0.828c-1.057-1.236-2.139-2.452-3.314-3.585c-0.452-0.436-0.957-0.815-1.425-1.234
	c-1.029-0.922-2.05-1.851-3.148-2.695c-0.604-0.463-1.256-0.863-1.878-1.302c-1.026-0.724-2.037-1.464-3.111-2.121
	c-0.738-0.451-1.515-0.833-2.272-1.252c-1.011-0.56-2.007-1.141-3.048-1.642c-0.852-0.41-1.733-0.745-2.603-1.115
	c-0.988-0.42-1.965-0.865-2.972-1.231c-0.933-0.34-1.886-0.603-2.832-0.896c-0.974-0.301-1.939-0.629-2.922-0.88
	c-0.978-0.249-1.963-0.422-2.947-0.621c-0.811-0.164-1.616-0.382-2.429-0.511c-0.157-0.025-0.314-0.025-0.471-0.049
	c-1.146-0.172-2.292-0.254-3.438-0.354c-0.856-0.075-1.712-0.186-2.566-0.219c-1.163-0.046-2.312,0.005-3.464,0.036
	c-0.825,0.022-1.655,0.003-2.473,0.066c-1.166,0.089-2.303,0.285-3.448,0.459c-0.777,0.118-1.566,0.188-2.33,0.345
	c-1.165,0.239-2.286,0.594-3.417,0.926c-0.704,0.208-1.428,0.361-2.117,0.605c-1.155,0.41-2.252,0.944-3.358,1.46
	c-0.612,0.285-1.251,0.51-1.845,0.827c-1.14,0.61-2.204,1.354-3.274,2.087c-0.497,0.34-1.03,0.615-1.51,0.982
	c-1.124,0.86-2.153,1.864-3.179,2.874c-0.357,0.352-0.758,0.638-1.103,1.009c-1.196,1.288-2.285,2.723-3.309,4.239
	c-0.116,0.171-0.259,0.303-0.373,0.477c-3.683,5.668-5.658,11.896-6.477,18.418c-1.792,14.226,1.922,29.857,5.493,44.169
	c2.48,9.932,4.758,20.078,6.522,30.292c3.907,22.639,5.199,45.615,0.069,67.393c-1.135,4.818-2.564,9.581-4.369,14.264
	c-1.923,4.989-4.729,10.066-8.223,14.335c-1.135,1.386-2.341,2.689-3.616,3.873v0.001c-1.608,1.493-3.333,2.771-5.14,3.832
	c-4.041,2.373-8.537,3.541-13.369,2.751c-6.348-1.016-11.649-5.255-16.492-9.493c-18.78-16.463-35.353-35.422-49.262-56.169
	c-8.012-11.952-15.154-24.489-21.282-37.507c-9.515-20.243-17.018-42.099-32.292-58.446c-0.02-0.021-0.044-0.039-0.063-0.06
	c-1.296-1.382-2.699-2.689-4.142-3.957c-0.372-0.326-0.741-0.649-1.122-0.967c-1.457-1.217-2.964-2.387-4.536-3.473
	c-0.291-0.201-0.596-0.38-0.89-0.576c-1.381-0.919-2.8-1.778-4.25-2.583c-0.442-0.246-0.876-0.498-1.325-0.733
	c-1.662-0.872-3.358-1.668-5.084-2.377c-0.438-0.18-0.878-0.332-1.319-0.5c-1.493-0.571-3.001-1.077-4.522-1.513
	c-0.412-0.118-0.817-0.254-1.23-0.363c-1.781-0.465-3.574-0.818-5.369-1.083c-0.495-0.073-0.988-0.124-1.483-0.181
	c-1.638-0.189-3.275-0.3-4.904-0.305c-0.263-0.001-0.529-0.028-0.792-0.024c-1.797,0.028-3.574,0.214-5.334,0.482
	c-0.257,0.039-0.52,0.026-0.776,0.07c-0.428,0.075-0.846,0.197-1.271,0.287c-0.423,0.09-0.845,0.181-1.264,0.286
	c-0.794,0.199-1.578,0.435-2.357,0.689c-0.461,0.151-0.926,0.291-1.383,0.462c-0.749,0.279-1.484,0.608-2.217,0.942
	c-0.445,0.203-0.898,0.381-1.335,0.604c-1.046,0.531-2.072,1.124-3.078,1.774c-0.086,0.056-0.179,0.096-0.265,0.153
	c-1.913,1.264-3.615,2.727-5.186,4.296c-13.391,13.36-14.632,36.835-6.697,54.678c7.881,17.735,22.412,31.311,36.91,44.408
	c1.793,1.62,3.587,3.236,5.365,4.849c37.272,33.793,71.698,71.267,97.422,114.47c31.635,53.094,49.126,112.996,61.048,173.88
	c2.938,14.953,5.525,29.937,7.888,44.921c5.413,34.107,10.124,69.169,21.286,101.581c4.823,14.032,10.855,27.571,18.665,40.316
	c16.57,27.045,40.234,48.853,63.601,70.312c35.061,32.201,70.505,64.046,105.231,96.612
	c-43.799,77.758-75.459,165.324-80.141,251.246c-0.934,17.161-0.353,34.328,1.657,51.241
	c-51.201,19.708-105.519,61.203-149.743,92.496c-101.817,72.029-190.148,163.198-258.226,267.749
	c-6.181,9.48-12.325,20.769-11.601,31.512c0.011,0.527-0.038,1.057,0,1.582c1.89,26.397,34.699,40.538,53.554,53.822
	c27.313,19.237,54.216,39.189,78.484,62.205c28.541,27.062,53.237,58.156,73.14,92.075c-1.934,3.206-3.854,6.57-5.744,10.015
	c-11.41,20.714-22.426,44.443-36.965,56.236c-28.555,23.157-64.648,35.267-100.887,41.442c-13.744,2.348-28.424,4.236-39.171,13.142
	c-22.207,18.412-12.317,58.504,13.062,72.202c9.16,4.936,20.619,7.221,29.905,2.524c5.442-2.745,9.506-7.54,13.539-12.112
	c34.631-39.218,78.027-70.677,126.071-91.408c4.794-2.063,10.494-3.983,14.986-1.332c3.902,2.316,5.301,7.223,6.124,11.698
	c7.888,43.062-7.366,87.693-31.615,124.153c-6.782,10.19-14.636,21.459-12.492,33.506c0.219,1.223,0.576,2.397,0.988,3.546
	c0.078,0.218,0.152,0.438,0.236,0.653c0.083,0.212,0.145,0.433,0.232,0.642c0.329,0.761,0.742,1.481,1.148,2.203
	c0.116,0.206,0.206,0.426,0.328,0.628c0.66,1.097,1.403,2.145,2.227,3.14c0.138,0.168,0.301,0.317,0.443,0.481
	c0.692,0.799,1.422,1.568,2.205,2.292c0.303,0.281,0.629,0.54,0.944,0.81c0.672,0.575,1.359,1.129,2.081,1.649
	c0.372,0.268,0.751,0.524,1.135,0.777c0.725,0.479,1.467,0.927,2.227,1.35c0.395,0.219,0.786,0.44,1.188,0.644
	c0.828,0.42,1.672,0.793,2.528,1.146c0.354,0.146,0.703,0.312,1.061,0.447c1.222,0.458,2.458,0.862,3.708,1.178
	c10.684,2.714,21.968,1.128,32.809-0.904c14.601-2.745,30.49-7.223,38.587-19.666c9.282-14.3,4.712-33.045,0.887-49.664
	c-8.667-37.73-11.698-76.758-8.95-115.376c0.41-5.729,1.35-12.19,6.046-15.491c5.842-4.109,13.871-0.984,20.029,2.619
	c30.144,17.586,54.363,45.108,67.966,77.25c7.002,16.509,15.206,37.413,33.111,38.538c7.361,0.477,14.377-2.889,20.979-6.204
	c14.305-7.206,28.999-14.984,38.636-27.761c0.672-0.876,1.296-1.799,1.891-2.737c0.008-0.014,0.02-0.026,0.028-0.04
	c0.015-0.023,0.024-0.048,0.039-0.071c1.972-3.103,3.569-6.488,4.73-10.005c0.025-0.077,0.054-0.151,0.079-0.227
	c0.541-1.666,0.965-3.362,1.297-5.068c0.037-0.184,0.078-0.366,0.111-0.55c0.298-1.643,0.484-3.293,0.575-4.939
	c0.014-0.244,0.027-0.485,0.036-0.729c0.057-1.612,0.008-3.215-0.15-4.799c-0.025-0.259-0.058-0.513-0.09-0.77
	c-0.195-1.578-0.492-3.134-0.918-4.652c-0.062-0.224-0.14-0.44-0.207-0.661c-0.471-1.543-1.049-3.052-1.778-4.498
	c-0.071-0.139-0.157-0.269-0.229-0.407c-0.795-1.51-1.711-2.97-2.812-4.336c-9.491-11.761-26.3-13.588-41.062-16.889
	c-63.517-14.268-102.485-65.552-144.434-110.55c-1.306-1.396-2.592-2.76-3.893-4.141c-2.933-3.111-5.744-5.715-8.458-7.905
	c-3.177-14.697-7.776-29.157-12.648-43.393c-21.654-63.09-51.184-126.559-99.598-171.377c2.028-0.927,4.065-1.829,6.093-2.759
	c76.409-34.982,152.009-71.725,226.733-110.168c36.175-18.602,72.697-38.015,101.71-66.521c7.267-7.14,14.029-14.958,20.042-23.303
	c17.1,15.323,36.699,28.305,58.765,38.224c0.651,0.287,1.3,0.587,1.955,0.858c4.456,1.953,8.988,3.705,13.552,5.366
	c1.173,0.428,2.351,0.842,3.53,1.25c4.322,1.494,8.673,2.892,13.073,4.129c0.285,0.08,0.564,0.177,0.849,0.255
	c4.672,1.294,9.392,2.4,14.135,3.406c1.179,0.25,2.362,0.484,3.546,0.717c4.315,0.849,8.649,1.6,13.007,2.213
	c0.507,0.072,1.01,0.167,1.518,0.235c4.755,0.639,9.531,1.104,14.318,1.465c1.286,0.097,2.573,0.171,3.862,0.248
	c1.472,0.088,2.94,0.221,4.412,0.283c2.704,0.115,5.406,0.144,8.11,0.173c0.704,0.007,1.408,0.043,2.113,0.045
	c0.172,0,0.345,0.011,0.516,0.011c0.018,0,0.035-0.001,0.054-0.001c0.425,0,0.849-0.022,1.273-0.025
	c3.084-0.016,6.168-0.074,9.25-0.202c1.047-0.043,2.09-0.129,3.135-0.186c1.115-0.06,2.225-0.128,3.337-0.203
	c1.347-0.09,2.695-0.161,4.039-0.273c1.417-0.118,2.83-0.284,4.245-0.426c1.948-0.195,3.898-0.375,5.841-0.614
	c0.307-0.038,0.614-0.072,0.921-0.111c1.32-0.168,2.633-0.386,3.952-0.574c1.981-0.283,3.961-0.564,5.935-0.893
	c1.425-0.238,2.844-0.508,4.266-0.771c0.876-0.162,1.753-0.31,2.627-0.481c1.154-0.225,2.304-0.458,3.453-0.7
	c1.555-0.326,3.101-0.683,4.651-1.038c1.873-0.43,3.744-0.869,5.608-1.341c0.099-0.025,0.197-0.046,0.295-0.071
	c0.415-0.106,0.836-0.191,1.251-0.299c1.044-0.271,2.074-0.585,3.115-0.87c1.837-0.502,3.668-1.02,5.491-1.565
	c1.549-0.462,3.092-0.942,4.632-1.434c0.519-0.166,1.043-0.314,1.561-0.483c0.279-0.091,0.563-0.169,0.84-0.26
	c1.009-0.334,2.003-0.708,3.007-1.054c1.524-0.525,3.043-1.062,4.555-1.616c1.789-0.657,3.568-1.34,5.341-2.038
	c0.573-0.225,1.153-0.428,1.723-0.657c0.23-0.092,0.465-0.172,0.694-0.265c0.588-0.239,1.167-0.501,1.754-0.745
	c11.4-0.534,22.777-1.539,34.078-3.111c36.823-5.109,72.661-15.586,108.346-26.03c74.431-21.795,149.121-43.71,221.769-70.704
	c-11.241,35.088-13.322,73.146-3.972,108.91c6.714,25.649,18.504,52.504,18.68,78.012c0.097,9.6-1.491,19.013-5.589,28.092
	c-9.919,21.937-32.458,35.364-54.933,44.015c-22.475,8.665-46.47,14.126-66.918,26.855c-20.443,12.745-37.218,35.474-33.788,59.315
	c0.237,1.653,0.642,3.266,1.135,4.85c0.173,0.553,0.402,1.081,0.604,1.623c0.378,1.018,0.781,2.026,1.255,3.005
	c0.29,0.601,0.608,1.182,0.931,1.767c0.496,0.893,1.027,1.766,1.595,2.618c0.373,0.559,0.743,1.113,1.146,1.653
	c0.648,0.869,1.346,1.699,2.063,2.515c0.395,0.448,0.763,0.911,1.177,1.342c1.142,1.19,2.342,2.328,3.615,3.375
	c0.119,0.098,0.25,0.18,0.371,0.277c1.203,0.969,2.459,1.869,3.754,2.696c0.443,0.283,0.901,0.524,1.353,0.789
	c1.01,0.592,2.031,1.155,3.078,1.655c0.507,0.242,1.016,0.46,1.53,0.68c1.055,0.451,2.123,0.851,3.201,1.201
	c0.297,0.096,0.583,0.243,0.882,0.331v0.017c0.35,0.103,0.704,0.165,1.056,0.257c0.386,0.102,0.773,0.195,1.162,0.284
	c0.94,0.213,1.882,0.38,2.826,0.51c0.388,0.053,0.774,0.121,1.161,0.161c1.223,0.124,2.443,0.187,3.656,0.161
	c0.077-0.001,0.154,0.009,0.23,0.006c1.269-0.036,2.525-0.18,3.769-0.391c0.4-0.067,0.791-0.173,1.186-0.259
	c0.859-0.187,1.708-0.41,2.546-0.687c0.434-0.143,0.864-0.301,1.291-0.469c0.824-0.324,1.631-0.707,2.427-1.126
	c0.37-0.195,0.745-0.371,1.109-0.587c1.132-0.673,2.241-1.42,3.296-2.304c7.445-6.239,11.05-15.793,15.43-24.475
	c29.442-58.331,111.089-82.855,167.786-50.38c20.346,11.652,36.789,28.872,54.489,44.253c17.696,15.364,37.935,29.474,61.155,32.648
	c1.37,0.187,2.753,0.317,4.141,0.406c0.469,0.031,0.941,0.033,1.41,0.052c0.926,0.038,1.852,0.07,2.782,0.066
	c0.554-0.003,1.108-0.027,1.664-0.045c0.848-0.026,1.694-0.061,2.542-0.123c0.588-0.042,1.175-0.099,1.763-0.159
	c0.816-0.083,1.629-0.179,2.442-0.293c0.595-0.084,1.19-0.173,1.782-0.273c0.807-0.137,1.605-0.295,2.405-0.464
	c0.585-0.123,1.171-0.242,1.75-0.382c0.815-0.196,1.62-0.421,2.425-0.65c0.547-0.155,1.099-0.298,1.64-0.469
	c0.91-0.286,1.804-0.61,2.696-0.937c0.418-0.153,0.844-0.286,1.257-0.448c1.262-0.495,2.5-1.035,3.716-1.614
	c0.481-0.229,0.941-0.489,1.414-0.731c0.748-0.383,1.496-0.764,2.223-1.179c0.539-0.309,1.06-0.644,1.587-0.97
	c0.63-0.391,1.259-0.782,1.868-1.197c0.539-0.367,1.062-0.751,1.583-1.137c0.563-0.417,1.118-0.84,1.661-1.279
	c0.52-0.421,1.029-0.852,1.53-1.293c0.504-0.444,0.991-0.901,1.475-1.366c0.491-0.473,0.978-0.948,1.447-1.442
	c0.444-0.47,0.867-0.961,1.29-1.45c0.459-0.53,0.923-1.054,1.354-1.605c0.368-0.471,0.703-0.968,1.051-1.456
	c0.435-0.61,0.885-1.208,1.288-1.843c0.005-0.007,0.01-0.013,0.015-0.02c0.105-0.164,0.185-0.343,0.287-0.508
	c0.609-0.985,1.192-1.984,1.713-3.023c0.626-1.252,1.191-2.543,1.683-3.881c2.412-6.555,2.889-14.475-1.335-20.031
	c-2.855-3.776-7.381-5.856-11.791-7.618c-43.366-17.283-94.489-18.141-130.596-47.727c-10.841-8.889-18.495-28.475-5.954-34.745
	c4.999-2.492,10.967-1.191,16.38,0.175c45.505,11.396,90.996,22.792,136.502,34.188c21.525,5.398,51.284,6.714,58.616-14.237
	c4.093-11.715-2.412-25.079-12.351-32.523c-9.92-7.442-22.519-10.19-34.758-12.19c-27.381-4.49-55.206-6.221-82.918-5.157
	c-18.568,0.699-37.598,2.602-55.391-2.794c-14.158-4.302-26.271-13.079-35.761-24.395c-11.03-13.142-18.524-29.712-21.603-46.648
	c-5.715-31.508,1.589-64.014,12.57-94.107c13.35-36.556,32.19-71.092,55.728-102.107c3.409-4.497,6.957-9.347,10.158-14.383
	c0.991-1.198,2.021-2.36,2.937-3.63c12.282-17.079,15.079-42.825,0.781-58.253c-14.48-15.618-39.032-14.824-60.203-12.489
	c-36.027,3.954-175.407,24.05-309.71,56.769c13.089-51.805,10.795-108.21,25.319-158.353c0.742,0.465,1.502,0.947,2.212,1.384
	c7.206,4.425,14.476,8.728,21.82,12.885c5.475,3.109,10.994,6.141,16.547,9.108c11.72,6.263,23.624,12.178,35.67,17.792
	c4.244,1.978,8.488,3.951,12.768,5.846c20.537,9.113,42.669,17.428,64.966,14.477c38.456-5.081,64.094-40.713,87.601-71.584
	c12.205-16.032,25.125-31.579,38.629-46.63c1.798-2.004,3.592-4.011,5.412-5.997c8.921-9.73,18.188-19.145,27.617-28.393
	c15.983-15.672,32.599-30.7,49.97-44.785c15.57-12.618,31.649-24.573,48.218-35.745c40.409-27.268,93.056-29.507,140.375-36.235
	c53.873-7.667,108.313-14.732,159.96-32.665c12.128-4.222,25.984-11.477,26.968-24.269
	C1900.946,739.385,1893.992,730.892,1885.503,727.289z"/>
<path style="fill:#E25D2C;" d="M1776.495,752.256c-12.234,4.203-24.64,7.637-37.493,9.112c-8.656,0.989-18.195,0.473-26.339-2.413
	c-2.486-0.881-4.826-1.988-6.973-3.358c-1.134-0.722-2.179-1.542-3.189-2.413c-2.268-1.955-4.3-4.183-5.784-6.958
	c-0.412-0.769-0.77-1.551-1.09-2.34c-3.044-7.492-2.118-15.843,0.791-23.789c1.928-5.269,4.726-10.36,7.807-14.901
	c2.196-3.241,4.555-6.341,6.992-9.373c14.604-18.171,33.155-32.919,51.615-47.742c20.516-16.474,40.882-33.079,55.454-54.705
	c1.746-2.589,3.394-5.385,4.804-8.291c0.022-0.047,0.051-0.092,0.073-0.139c0.105-0.216,0.181-0.441,0.281-0.657
	c2.673-5.729,4.383-11.848,3.927-17.684c-0.235-3.028-1.048-5.978-2.596-8.752c-0.648-1.161-1.379-2.19-2.183-3.149
	c-0.043-0.051-0.073-0.118-0.117-0.169c-0.317-0.374-0.68-0.681-1.017-1.024c-0.348-0.353-0.679-0.733-1.049-1.054
	c-0.505-0.44-1.054-0.812-1.597-1.193c-0.301-0.212-0.58-0.459-0.891-0.653c-0.864-0.538-1.77-1.006-2.709-1.415
	c-0.359-0.157-0.744-0.264-1.114-0.403c-0.614-0.229-1.223-0.466-1.861-0.648c-0.44-0.124-0.899-0.206-1.35-0.308
	c-0.596-0.135-1.189-0.277-1.802-0.375c-0.486-0.076-0.987-0.118-1.481-0.172c-0.603-0.065-1.203-0.133-1.818-0.165
	c-0.516-0.027-1.041-0.026-1.565-0.03c-0.612-0.005-1.223-0.007-1.842,0.018c-0.539,0.022-1.082,0.064-1.625,0.108
	c-0.619,0.05-1.237,0.106-1.861,0.184c-0.55,0.068-1.104,0.15-1.659,0.239c-0.623,0.1-1.242,0.211-1.867,0.335
	c-0.557,0.111-1.115,0.231-1.671,0.361c-0.625,0.147-1.247,0.307-1.871,0.476c-0.552,0.15-1.103,0.302-1.651,0.469
	c-0.63,0.192-1.253,0.4-1.878,0.614c-0.534,0.183-1.068,0.362-1.598,0.56c-0.636,0.237-1.262,0.495-1.89,0.753
	c-0.503,0.207-1.009,0.408-1.506,0.628c-0.657,0.29-1.296,0.603-1.938,0.914c-0.45,0.218-0.905,0.426-1.346,0.654
	c-0.715,0.368-1.405,0.759-2.096,1.151c-0.347,0.196-0.705,0.381-1.045,0.583c-1.022,0.606-2.016,1.234-2.971,1.885
	c-4.822,3.291-9.333,6.937-13.705,10.744c-39.861,34.713-63.177,88.354-108.448,116.362c-4.126,2.553-8.786,4.704-13.633,6.336
	c-1.848,0.622-3.714,1.193-5.601,1.646c-15.05,3.608-30.803,1.52-38.188-11.237c-5.241-9.056-3.999-20.149-1.943-30.59
	c0.242-1.235,0.492-2.466,0.749-3.678c1.029-4.878,2.063-9.753,3.094-14.631c4.31-20.402,8.623-40.8,12.941-61.206
	c0.619-2.94,1.232-5.904,1.786-8.879c0.2-1.073,0.379-2.148,0.559-3.224c1.493-8.925,2.21-17.928,0.334-26.72
	c-0.068-0.32-0.19-0.632-0.266-0.95c-0.302-1.258-0.624-2.514-1.055-3.746c-0.197-0.563-0.473-1.098-0.696-1.652
	c-0.39-0.968-0.759-1.945-1.225-2.88c-0.313-0.627-0.701-1.208-1.047-1.815c-0.466-0.818-0.903-1.651-1.425-2.428
	c-0.422-0.629-0.916-1.194-1.375-1.792c-0.53-0.691-1.033-1.404-1.608-2.049c-0.519-0.579-1.101-1.08-1.654-1.617
	c-0.597-0.58-1.169-1.187-1.805-1.713c-0.592-0.488-1.24-0.885-1.864-1.322c-0.672-0.471-1.323-0.97-2.031-1.376
	c-0.651-0.373-1.35-0.644-2.029-0.958c-0.747-0.346-1.477-0.72-2.257-0.989c-0.701-0.242-1.442-0.372-2.167-0.547
	c-0.681-0.165-1.332-0.41-2.033-0.513l-0.873-0.112l-0.004,0c-14.933-1.603-27.6,11.065-34.855,24.222
	c-3.034,5.504-5.47,11.171-7.519,16.942c-15.865,44.692-4.887,96.676-7.788,145.3c-0.018,0.302-0.021,0.608-0.04,0.91
	c-0.035,0.565-0.112,1.153-0.153,1.721c-1.951,27.411-9.373,57.862-19.391,83.882c-0.767,1.994-1.515,4.026-2.311,5.964
	c-8.615,20.955-21.534,34.955-36.24,49.001c-2.036,1.945-4.104,3.889-6.201,5.854c2.714,0.032,5.759-0.27,9.223-0.906
	c25.315-4.651,47.152-19.92,70.139-31.506c36.078-18.175,76.453-27.617,116.867-27.841c31.439-0.173,63.327,5.096,94.09-1.445
	c13.647-2.904,26.68-8.061,39.649-13.203c13.379-5.303,27.031-10.762,37.92-20.175c5.666-4.887,10.49-11.061,13.505-17.887v-0.001
	C1826.841,731.302,1802.048,743.478,1776.495,752.256z"/>
<path style="fill:#385B3E;" d="M1319.865,635.707L1319.865,635.707c7.54,6.364,14.614,13.213,20.914,20.52
	c12.961-39.231,8.354-86.698-9.094-122.14c-5.574-11.323-12.716-22.227-22.879-29.708c-21.091-15.522-51.835-12.814-73.847,1.364
	c-21.337,13.74-35.479,36.287-45.022,59.86c44.568,13.426,86.447,36.131,122.23,63.882
	C1314.768,631.5,1317.341,633.581,1319.865,635.707z"/>
<path style="fill:#E25D2C;" d="M1103.732,540.013c-4.141-5.683-9.019-10.934-14.651-15.602
	c-9.427-7.792-20.969-13.982-34.712-17.889c-2.185-0.622-4.39-1.162-6.608-1.625c-0.747-0.156-1.503-0.253-2.254-0.392
	c-1.477-0.272-2.951-0.558-4.438-0.762c-0.916-0.126-1.838-0.188-2.757-0.288c-1.329-0.145-2.657-0.312-3.99-0.404
	c-0.983-0.067-1.967-0.072-2.952-0.111c-1.279-0.051-2.555-0.125-3.836-0.128c-0.082-0.001-0.165-0.009-0.248-0.009
	c-0.243,0-0.486,0.033-0.731,0.035c-2.698,0.019-5.396,0.161-8.088,0.388c-0.738,0.062-1.472,0.125-2.211,0.202
	c-2.94,0.31-5.876,0.706-8.786,1.257c-0.237,0.045-0.471,0.109-0.71,0.156c-2.71,0.532-5.396,1.19-8.061,1.926
	c-0.719,0.199-1.432,0.399-2.146,0.612c-2.85,0.85-5.677,1.779-8.449,2.858c-0.155,0.06-0.303,0.133-0.457,0.193
	c-2.634,1.038-5.216,2.206-7.76,3.444c-0.674,0.328-1.344,0.659-2.01,1.001c-2.653,1.36-5.269,2.791-7.798,4.365
	c-0.074,0.046-0.143,0.098-0.217,0.144c-2.457,1.538-4.827,3.206-7.147,4.941c-0.603,0.451-1.2,0.906-1.792,1.369
	c-2.352,1.838-4.654,3.741-6.837,5.78c-1.546,1.443-3.036,2.941-4.488,4.472c-0.471,0.497-0.917,1.017-1.379,1.523
	c-0.963,1.056-1.918,2.12-2.838,3.214c-0.517,0.615-1.015,1.247-1.518,1.873c-0.826,1.027-1.637,2.063-2.424,3.119
	c-0.499,0.67-0.988,1.347-1.471,2.028c-0.755,1.065-1.491,2.142-2.208,3.232c-0.452,0.685-0.903,1.371-1.339,2.067
	c-0.726,1.155-1.418,2.328-2.101,3.509c-0.376,0.651-0.762,1.295-1.126,1.953c-0.77,1.396-1.498,2.814-2.21,4.242
	c-0.232,0.465-0.483,0.919-0.709,1.387c-0.917,1.903-1.783,3.833-2.597,5.784c-0.183,0.44-0.341,0.889-0.519,1.331
	c-0.611,1.52-1.204,3.047-1.753,4.592c-0.251,0.706-0.475,1.421-0.712,2.132c-0.434,1.3-0.855,2.603-1.245,3.918
	c-0.233,0.79-0.449,1.585-0.666,2.381c-0.345,1.264-0.671,2.531-0.974,3.806c-0.193,0.815-0.381,1.631-0.558,2.451
	c-0.279,1.292-0.529,2.589-0.764,3.89c-0.144,0.795-0.293,1.589-0.42,2.386c-0.226,1.409-0.411,2.822-0.585,4.238
	c-0.084,0.688-0.187,1.375-0.26,2.065c-0.212,2.025-0.378,4.054-0.485,6.086c-0.003,0.078-0.012,0.156-0.017,0.233
	c-0.099,1.961-0.149,3.924-0.147,5.888c0,0.137,0.012,0.274,0.013,0.412c0.007,1.534,0.078,3.067,0.146,4.599
	c0.037,0.787,0.038,1.574,0.089,2.36c0.152,2.317,0.369,4.629,0.665,6.933c1.683,13.08,5.586,25.985,12.412,37.268
	c3.76,6.21,8.161,11.699,13.058,16.46c3.862,3.765,8.036,7.081,12.445,9.971c27.588,18.063,64.872,19.521,96.095,6.777
	c5.174-2.113,10.187-4.619,14.95-7.509C1122.321,659.976,1136.887,585.676,1103.732,540.013z"/>
<path style="fill:#385B3E;" d="M1375.721,1205.103c-20.782,8.977-40.35,23.422-60.031,35.129
	c-31.54,18.791-66.345,31.284-100.917,43.663c-17.026,6.097-34.137,12.221-51.885,15.808c-18.252,3.684-36.935,4.635-55.536,5.586
	c-13.254,0.668-26.508,1.352-39.745,2.02c-1.023,0.051-2.05,0.117-3.076,0.172c-10.005,11.164-20.917,21.497-32.779,30.777
	c-2.768,2.165-5.589,4.256-8.452,6.286c-0.96,0.682-1.951,1.317-2.922,1.984c-1.919,1.317-3.836,2.637-5.794,3.896
	c-1.188,0.763-2.402,1.479-3.603,2.22c-1.785,1.101-3.564,2.207-5.376,3.259c-1.299,0.754-2.621,1.465-3.934,2.194
	c-1.75,0.972-3.499,1.946-5.274,2.874c-1.375,0.719-2.77,1.4-4.158,2.092c-1.749,0.87-3.497,1.738-5.266,2.566
	c-1.437,0.672-2.888,1.313-4.337,1.957c-1.753,0.778-3.508,1.549-5.279,2.286c-0.1,0.042-0.2,0.088-0.299,0.13
	c11.4-0.534,22.777-1.539,34.078-3.111c36.823-5.109,72.661-15.586,108.346-26.03c74.431-21.795,149.121-43.71,221.769-70.704
	c3.896-12.16,8.875-23.969,14.883-35.195C1361.228,1225.446,1367.915,1215.255,1375.721,1205.103z"/>
<path style="fill:#F6D75C;" d="M1152.784,570.835c6.41,4.139,13.085,7.987,19.451,11.844c33.827,20.475,63.683,47.457,87.459,79.043
	c7.191,9.539,14.125,19.776,24.361,25.919c10.255,6.126,25.032,6.714,32.921-2.239c9.807-11.126,8.526-30.458,2.889-49.695v0
	c-2.524-2.126-5.096-4.207-7.698-6.221c-35.783-27.751-77.662-50.456-122.23-63.882c-14.008-4.22-28.279-7.508-42.715-9.753
	C1149.368,560.688,1151.281,565.659,1152.784,570.835z"/>
<path style="fill:#D73A1E;" d="M1089.082,524.411c-9.427-7.792-20.969-13.982-34.712-17.889c-2.185-0.622-4.39-1.162-6.608-1.625
	c-0.747-0.156-1.503-0.253-2.254-0.392c-1.477-0.272-2.951-0.558-4.438-0.762c-0.916-0.126-1.838-0.188-2.757-0.288
	c-1.329-0.145-2.657-0.312-3.99-0.404c-0.983-0.067-1.967-0.072-2.952-0.111c-1.279-0.051-2.555-0.125-3.836-0.128
	c-0.082-0.001-0.165-0.009-0.248-0.009c-0.243,0-0.486,0.033-0.731,0.035c-2.698,0.019-5.396,0.161-8.088,0.388
	c-0.738,0.062-1.472,0.125-2.211,0.202c-2.94,0.31-5.876,0.706-8.786,1.257c-0.237,0.045-0.471,0.109-0.71,0.156
	c-2.71,0.532-5.396,1.19-8.061,1.926c-0.719,0.199-1.432,0.399-2.146,0.612c-2.85,0.85-5.677,1.779-8.449,2.858
	c-0.155,0.06-0.303,0.133-0.457,0.193c-2.634,1.038-5.216,2.206-7.76,3.444c-0.674,0.328-1.344,0.659-2.01,1.001
	c-2.653,1.36-5.269,2.791-7.798,4.365c-0.074,0.046-0.143,0.098-0.217,0.144c-2.457,1.538-4.827,3.206-7.147,4.941
	c-0.603,0.451-1.2,0.906-1.792,1.369c-2.352,1.838-4.654,3.741-6.837,5.78c-1.546,1.443-3.036,2.941-4.488,4.472
	c-0.471,0.497-0.917,1.017-1.379,1.523c-0.963,1.056-1.918,2.12-2.838,3.214c-0.517,0.615-1.015,1.247-1.518,1.873
	c-0.826,1.027-1.637,2.063-2.424,3.119c-0.499,0.67-0.988,1.347-1.471,2.028c-0.755,1.065-1.491,2.142-2.208,3.232
	c-0.452,0.685-0.903,1.371-1.339,2.067c-0.726,1.155-1.418,2.328-2.101,3.509c-0.376,0.651-0.762,1.295-1.126,1.953
	c-0.77,1.396-1.498,2.814-2.21,4.242c-0.232,0.465-0.483,0.919-0.709,1.387c-0.917,1.903-1.783,3.833-2.597,5.784
	c-0.183,0.44-0.341,0.889-0.519,1.331c-0.611,1.52-1.204,3.047-1.753,4.592c-0.251,0.706-0.475,1.421-0.712,2.132
	c-0.434,1.3-0.855,2.603-1.245,3.918c-0.233,0.79-0.449,1.585-0.666,2.381c-0.345,1.264-0.671,2.531-0.974,3.806
	c-0.193,0.815-0.381,1.631-0.558,2.451c-0.279,1.292-0.529,2.589-0.764,3.89c-0.144,0.795-0.293,1.589-0.42,2.386
	c-0.226,1.409-0.411,2.822-0.585,4.238c-0.084,0.688-0.187,1.375-0.26,2.065c-0.212,2.025-0.378,4.054-0.485,6.086
	c-0.003,0.078-0.012,0.156-0.017,0.233c-0.099,1.961-0.149,3.924-0.147,5.888c0,0.137,0.012,0.274,0.013,0.412
	c0.007,1.534,0.078,3.067,0.146,4.599c0.037,0.787,0.038,1.574,0.089,2.36c0.152,2.317,0.369,4.629,0.665,6.933
	c1.683,13.08,5.586,25.985,12.412,37.268c3.76,6.21,8.161,11.699,13.058,16.46c4.52-14.565,10.526-28.667,17.828-42.065
	c10.843,11.876,26.401,19.372,43.748,19.372c30.366,0,55.36-22.837,58.844-52.264c12.992-2.181,22.905-13.452,22.905-27.066
	c0-15.177-12.302-27.476-27.474-27.476c-5.179,0-10.007,1.459-14.141,3.95c-0.745-0.686-1.469-1.394-2.247-2.042
	c14.055-7.925,29.378-13.71,45.357-15.334c3.262-0.331,6.546-0.362,9.742-0.362c0.409,0,0.819,0,1.225,0.001
	c1.007,0,2.004,0,2.987-0.008C1099.591,534.329,1094.714,529.079,1089.082,524.411z"/>
<path style="fill:#020304;" d="M1060.81,553.807c-5.179,0-10.007,1.459-14.141,3.95c-0.745-0.686-1.469-1.394-2.247-2.042
	c-10.276-8.545-23.477-13.691-37.887-13.691c-32.746,0-59.294,26.546-59.294,59.294c0,15.399,5.919,29.382,15.546,39.924
	c10.843,11.876,26.401,19.372,43.748,19.372c30.366,0,55.36-22.837,58.844-52.264c12.992-2.181,22.905-13.452,22.905-27.066
	C1088.284,566.106,1075.982,553.807,1060.81,553.807z"/>
<path style="fill:#F1ED92;" d="M1367.05,726.147c-11.333-7.475-24.822-10.618-39.756-12.618
	c-33.222-4.492-67.171,0.587-99.376,9.047c-42.017,11.031-82.392,27.839-124.648,37.886
	c-49.188,11.698-100.565,14.046-150.611,6.872c11.756,8.221,24.696,14.44,38.283,18.905c-32.931,19.342-60.108,65.771-78.486,93.201
	c-48.505,72.426-88.376,150.645-118.454,232.45c-17.763,48.282-32.252,98.646-32.348,150.086
	c-0.029,27.414,4.048,54.808,12.063,81.016c2.749,8.918,6.044,17.808,9.954,26.41c4.456,1.953,8.988,3.705,13.552,5.366
	c1.173,0.428,2.351,0.842,3.53,1.25c4.322,1.494,8.673,2.892,13.073,4.129c0.285,0.08,0.564,0.177,0.849,0.255
	c4.672,1.294,9.392,2.4,14.135,3.406c1.179,0.25,2.362,0.484,3.546,0.717c4.315,0.849,8.649,1.6,13.007,2.213
	c0.507,0.072,1.01,0.167,1.518,0.235c4.755,0.639,9.531,1.104,14.318,1.465c1.286,0.097,2.573,0.171,3.862,0.248
	c1.472,0.088,2.94,0.221,4.412,0.283c2.704,0.115,5.406,0.144,8.11,0.173c0.704,0.007,1.408,0.043,2.113,0.045
	c0.172,0,0.345,0.011,0.516,0.011c0.018,0,0.035-0.001,0.054-0.001c0.425,0,0.849-0.022,1.273-0.025
	c3.084-0.016,6.168-0.074,9.25-0.202c1.225-0.051,2.447-0.152,3.671-0.22c0.934-0.053,1.868-0.106,2.801-0.169
	c1.347-0.09,2.695-0.161,4.039-0.273c1.417-0.118,2.83-0.284,4.245-0.426c1.948-0.195,3.898-0.375,5.841-0.614
	c0.128-0.016,0.256-0.038,0.383-0.054c1.5-0.188,2.994-0.418,4.491-0.632c1.981-0.283,3.961-0.564,5.935-0.893
	c1.535-0.256,3.063-0.55,4.594-0.835c0.765-0.142,1.535-0.268,2.298-0.417c1.154-0.225,2.304-0.458,3.453-0.7
	c1.555-0.326,3.101-0.683,4.651-1.038c1.873-0.43,3.744-0.869,5.608-1.341c1.559-0.395,3.111-0.815,4.66-1.239
	c1.837-0.502,3.668-1.02,5.491-1.565c1.549-0.462,3.092-0.942,4.632-1.434c0.519-0.166,1.043-0.314,1.561-0.483
	c0.279-0.091,0.563-0.169,0.84-0.26c1.009-0.334,2.003-0.708,3.007-1.054c1.524-0.525,3.043-1.062,4.555-1.616
	c1.789-0.657,3.568-1.34,5.341-2.038c1.495-0.588,2.988-1.18,4.47-1.797c1.771-0.737,3.526-1.508,5.279-2.286
	c1.449-0.644,2.9-1.285,4.337-1.957c1.769-0.828,3.517-1.696,5.266-2.566c1.388-0.692,2.783-1.374,4.158-2.092
	c1.775-0.927,3.524-1.902,5.274-2.874c1.313-0.729,2.636-1.441,3.934-2.194c1.812-1.052,3.592-2.158,5.376-3.259
	c1.2-0.74,2.415-1.457,3.603-2.22c1.957-1.258,3.874-2.578,5.794-3.896c0.971-0.667,1.962-1.302,2.922-1.984
	c2.863-2.03,5.684-4.121,8.452-6.286c11.862-9.28,22.775-19.613,32.779-30.777c30.328-33.841,52.277-75.361,66.742-118.662
	c1.879-5.62,3.457-11.332,4.91-17.081c13.089-51.805,10.795-108.21,25.319-158.353c1.481-5.114,3.073-10.186,4.942-15.157
	c7.818-20.819,19.63-41.347,33.577-60.991c0.507-0.714,1.033-1.419,1.546-2.131c1.711-2.376,3.445-4.741,5.215-7.089
	c0.704-0.934,1.418-1.862,2.13-2.792c1.645-2.146,3.307-4.28,4.994-6.399c0.743-0.934,1.487-1.868,2.238-2.798
	c1.762-2.181,3.544-4.342,5.342-6.493c0.666-0.796,1.325-1.598,1.995-2.389c2.275-2.689,4.572-5.353,6.894-7.99
	c0.184-0.209,0.364-0.423,0.549-0.633c2.542-2.88,5.107-5.724,7.688-8.537c0.698-0.76,1.402-1.504,2.101-2.258
	c1.823-1.968,3.648-3.924,5.482-5.855c1.033-1.088,2.067-2.162,3.103-3.237c1.476-1.534,2.95-3.057,4.427-4.565
	c1.222-1.246,2.442-2.487,3.662-3.716c0.468-0.47,0.936-0.955,1.402-1.422c0.485-0.486,0.966-0.943,1.451-1.427
	c2.56-2.554,5.116-5.065,7.662-7.536c0.892-0.866,1.778-1.734,2.667-2.589c3.214-3.093,6.414-6.139,9.567-9.086
	c29.557-27.629,64.65-54.836,79.984-93.343c0.587-1.478,1.116-2.995,1.647-4.51c0.93-2.65,1.799-5.334,2.528-8.092
	c0.478-1.819,0.806-3.599,1.166-5.388c0.12-0.589,0.278-1.189,0.385-1.775c0.119-0.656,0.235-1.312,0.339-1.963
	c0.374-2.355,0.682-4.695,0.857-7C1367.043,726.2,1367.048,726.173,1367.05,726.147
	C1367.051,726.147,1367.05,726.147,1367.05,726.147z"/>
<path style="fill:#FFFFFF;" d="M1033.332,581.283c0,15.174,12.302,27.477,27.479,27.477c1.56,0,3.079-0.161,4.569-0.411
	c12.992-2.181,22.905-13.452,22.905-27.066c0-15.177-12.302-27.476-27.474-27.476c-5.179,0-10.007,1.459-14.141,3.95
	C1038.687,562.564,1033.332,571.286,1033.332,581.283z"/>
<path style="fill:#385B3E;" d="M1227.918,722.576c-42.017,11.031-82.392,27.839-124.648,37.886
	c-49.188,11.698-100.565,14.046-150.611,6.872c11.756,8.221,24.696,14.44,38.283,18.905c21.855,7.181,45.395,9.795,68.445,8.698
	c37.359-1.793,73.739-12.697,108.629-26.221c18.918-7.347,37.603-15.491,57.14-20.95c25.52-7.128,52.331-9.381,78.694-6.97
	c13.457,1.223,26.792,3.668,39.79,7.318c5.189,1.444,10.811,4.158,16.477,6.841c0.589-1.478,1.117-2.995,1.648-4.51
	c0.93-2.65,1.799-5.334,2.528-8.092c0.478-1.819,0.806-3.599,1.166-5.388c0.12-0.589,0.278-1.189,0.385-1.775
	c0.119-0.656,0.235-1.312,0.339-1.963c0.374-2.355,0.682-4.695,0.857-7c0.003-0.026,0.008-0.052,0.01-0.078c0,0-0.001,0-0.001-0.001
	c-11.333-7.475-24.822-10.618-39.756-12.618C1294.072,709.037,1260.123,714.116,1227.918,722.576z"/>
<path style="fill:#E1E150;" d="M1250.219,865.109c-8.922-3.246-18.595-4.698-28.769-4.697
	c-60.217,0.005-137.701,50.907-177.177,81.961c-84.408,66.398-140.848,164.821-165.502,269.337
	c-10.108,42.821-15.168,86.821-15.058,130.804c0.031,15.509,1.049,31.839,5.76,46.457c2.704,0.115,5.406,0.144,8.11,0.173
	c0.704,0.007,1.408,0.043,2.113,0.045c0.172,0,0.345,0.011,0.516,0.011c0.018,0,0.035-0.001,0.054-0.001
	c0.425,0,0.849-0.022,1.273-0.025c3.084-0.016,6.168-0.074,9.25-0.202c1.225-0.051,2.447-0.152,3.671-0.22
	c0.934-0.053,1.868-0.106,2.801-0.169c1.347-0.09,2.695-0.161,4.039-0.273c1.417-0.118,2.83-0.284,4.245-0.426
	c1.948-0.195,3.898-0.375,5.841-0.614c0.128-0.016,0.256-0.038,0.383-0.054c1.5-0.188,2.994-0.418,4.491-0.632
	c1.981-0.283,3.961-0.564,5.935-0.893c1.535-0.256,3.063-0.55,4.594-0.835c0.765-0.142,1.535-0.268,2.298-0.417
	c1.154-0.225,2.304-0.458,3.453-0.7c1.555-0.326,3.101-0.683,4.651-1.038c1.873-0.43,3.744-0.869,5.608-1.341
	c1.559-0.395,3.111-0.815,4.66-1.239c1.837-0.502,3.668-1.02,5.491-1.565c1.549-0.462,3.092-0.942,4.632-1.434
	c0.519-0.166,1.043-0.314,1.561-0.483c0.279-0.091,0.563-0.169,0.84-0.26c1.009-0.334,2.003-0.708,3.007-1.054
	c1.524-0.525,3.043-1.062,4.555-1.616c1.789-0.657,3.568-1.34,5.341-2.038c1.495-0.588,2.988-1.18,4.47-1.797
	c1.771-0.737,3.526-1.508,5.279-2.286c1.449-0.644,2.9-1.285,4.337-1.957c1.769-0.828,3.517-1.696,5.266-2.566
	c1.388-0.692,2.783-1.374,4.158-2.092c1.775-0.927,3.524-1.902,5.274-2.874c1.313-0.729,2.636-1.441,3.934-2.194
	c1.812-1.052,3.592-2.158,5.376-3.259c1.2-0.74,2.415-1.457,3.603-2.22c1.957-1.258,3.874-2.578,5.794-3.896
	c0.971-0.667,1.962-1.302,2.922-1.984c2.863-2.03,5.684-4.121,8.452-6.286c11.862-9.28,22.775-19.613,32.779-30.777
	c30.328-33.841,52.277-75.361,66.742-118.662c1.879-5.62,3.457-11.332,4.91-17.081c13.089-51.805,10.795-108.21,25.319-158.353
	c1.481-5.114,3.073-10.186,4.942-15.157c7.818-20.819,19.63-41.347,33.577-60.991c0.507-0.714,1.033-1.419,1.546-2.131
	c1.711-2.376,3.445-4.741,5.215-7.089c0.704-0.934,1.418-1.862,2.13-2.792c1.645-2.146,3.307-4.28,4.994-6.399
	c0.743-0.934,1.487-1.868,2.238-2.798c1.762-2.181,3.544-4.342,5.342-6.493c0.666-0.796,1.325-1.598,1.995-2.389
	c2.275-2.689,4.572-5.353,6.894-7.99c0.184-0.209,0.364-0.423,0.549-0.633c2.542-2.88,5.107-5.724,7.688-8.537
	c0.698-0.76,1.402-1.504,2.101-2.258c1.823-1.968,3.648-3.924,5.482-5.855c1.033-1.088,2.067-2.162,3.103-3.237
	c1.476-1.534,2.95-3.057,4.427-4.565c1.222-1.246,2.442-2.487,3.662-3.716c0.468-0.47,0.936-0.955,1.402-1.422
	C1255.932,867.425,1253.045,866.141,1250.219,865.109z"/>
<path style="fill:#F6D75C;" d="M837.507,789.463c18.329-10.889,43.849-23.506,54.431-42.818c6.177-11.272,6.86-25.399,1.793-37.213
	c-1.91-4.451-4.789-8.755-9.126-10.914c-7.771-3.871-17.471,0.604-22.957,7.335c-5.491,6.728-8.107,15.276-11.981,23.05
	c-4.151,8.336-9.846,15.903-16.711,22.2c-5.101,4.685-10.855,8.682-15.493,13.825c-6.119,6.785-11.835,20.117-3.712,27.876
	C820.966,799.695,830.418,793.672,837.507,789.463z"/>
<path style="fill:#F6D75C;" d="M885.22,797.078c-15.425,9.44-26.368,20.631-36.239,35.825c-4.136,6.365-8.2,13.179-8.76,20.75
	c-0.56,7.571,3.523,16.029,10.875,17.932c6.87,1.779,13.998-2.665,18.212-8.37c4.219-5.708,6.441-12.616,9.89-18.821
	c3.065-5.517,7.123-10.484,11.917-14.592c4.575-3.917,9.793-7.043,14.28-11.06c4.487-4.017,8.327-9.24,8.906-15.233
	C916.255,783.224,894.754,791.241,885.22,797.078z"/>
<path style="fill:#F6D75C;" d="M800.338,941.3c-2.831-0.875-5.919-0.164-8.623,1.033c-9.028,4-14.773,12.782-21.194,20.282
	c-5.846,6.826-12.584,12.85-18.353,19.744c-5.763,6.897-10.626,14.936-11.761,23.849c-2.412,18.994,15.747,33.749,32.731,21.364
	c5.876-4.283,9.539-10.999,11.902-17.873c2.368-6.877,3.625-14.085,5.793-21.028c2.061-6.606,4.95-12.953,8.57-18.85
	c2.909-4.731,6.358-9.345,7.435-14.792C807.914,949.582,805.639,942.937,800.338,941.3z"/>
<path style="fill:#385B3E;" d="M1524.712,877.487c-41.35,12.492-77.106,42.792-105.091,74.665
	c-15.445,17.568-29.427,36.567-46.918,52.092c-17.491,15.522-39.41,27.6-62.792,27.712c-19.074,0.095-37.189-7.651-55.376-13.413
	c-18.188-5.776-38.49-9.554-55.932-1.81c-5.096,2.271-9.764,6.239-13.067,10.921c5.474,3.109,10.991,6.141,16.544,9.108
	c11.72,6.263,23.624,12.178,35.67,17.792c4.244,1.978,8.49,3.951,12.77,5.846c20.536,9.111,42.665,17.428,64.965,14.475
	c38.455-5.079,64.092-40.712,87.6-71.584c12.206-16.031,25.126-31.578,38.63-46.629c1.798-2.004,3.592-4.011,5.412-5.997
	C1471.166,924.447,1497.093,899.884,1524.712,877.487z"/>
<path style="fill:#385B3E;" d="M1148.8,599.015c-2.879,3.198-2.051,14.904-2.996,19.172c-3.6,16.288-10.563,31.739-19.435,45.817
	c-12.239,19.42-28.044,36.348-44.658,52.192c12.56-2.667,22.417-12.104,31.459-21.215c22.495-22.655,45.588-48.041,49.944-79.666
	c0.59-4.273,0.775-8.819-1.106-12.699C1159.675,597.812,1152.854,594.516,1148.8,599.015z"/>
<path style="fill:#E25D2C;" d="M774.696,197.76c-0.402-0.007-0.8-0.078-1.202-0.072c-0.531,0.008-1.061,0.119-1.591,0.15
	c-3.342,0.195-6.687,0.752-9.982,1.911c-1.307,0.461-2.525,1.066-3.756,1.65c-11.793,5.588-20.373,16.455-28.749,26.914
	c-0.904,1.128-1.806,2.258-2.71,3.368c-19.51,23.905-43.521,44.087-70.299,59.423c-14.012,8.025-28.767,14.749-44.063,19.934
	c-8.351,2.821-18.012,5.096-25.603,0.604c-3.788-2.241-6.241-5.719-7.818-9.744c-2.268-5.786-2.669-12.734-2.155-19.041
	c1.758-21.799,9.36-42.376,17.295-62.885c3.787-9.788,7.648-19.561,10.987-29.443c10.344-30.602,15.201-66.243-1.846-93.688
	c-1.057-1.704-2.233-3.331-3.5-4.886c-0.236-0.29-0.516-0.543-0.76-0.828c-1.057-1.236-2.139-2.452-3.314-3.585
	c-0.452-0.436-0.957-0.815-1.425-1.234c-1.029-0.922-2.05-1.851-3.148-2.695c-0.604-0.463-1.256-0.863-1.878-1.302
	c-1.026-0.724-2.037-1.464-3.111-2.121c-0.738-0.451-1.515-0.833-2.272-1.252c-1.011-0.56-2.007-1.141-3.048-1.642
	c-0.852-0.41-1.733-0.745-2.603-1.115c-0.988-0.42-1.965-0.865-2.972-1.231c-0.933-0.34-1.886-0.603-2.832-0.896
	c-0.974-0.301-1.939-0.629-2.922-0.88c-0.978-0.249-1.963-0.422-2.947-0.621c-0.811-0.164-1.616-0.382-2.429-0.511
	c-0.157-0.025-0.314-0.025-0.471-0.049c-1.146-0.172-2.292-0.254-3.438-0.354c-0.856-0.075-1.712-0.186-2.566-0.219
	c-1.163-0.046-2.312,0.005-3.464,0.036c-0.825,0.022-1.655,0.003-2.473,0.066c-1.166,0.089-2.303,0.285-3.448,0.459
	c-0.777,0.118-1.566,0.188-2.33,0.345c-1.165,0.239-2.286,0.594-3.417,0.926c-0.704,0.208-1.428,0.361-2.117,0.605
	c-1.155,0.41-2.252,0.944-3.358,1.46c-0.612,0.285-1.251,0.51-1.845,0.827c-1.14,0.61-2.204,1.354-3.274,2.087
	c-0.497,0.34-1.03,0.615-1.51,0.982c-1.124,0.86-2.153,1.864-3.179,2.874c-0.357,0.352-0.758,0.638-1.103,1.009
	c-1.196,1.288-2.285,2.723-3.309,4.239c-0.116,0.171-0.259,0.303-0.373,0.477c-3.683,5.668-5.658,11.896-6.477,18.418
	c-1.789,14.228,1.93,29.862,5.498,44.169c2.478,9.932,4.754,20.078,6.517,30.292c3.907,22.639,5.199,45.615,0.069,67.393
	c-1.134,4.816-2.561,9.577-4.364,14.259c-1.926,4.992-4.731,10.07-8.228,14.34c-1.135,1.386-2.341,2.689-3.616,3.873v0.001
	c-1.608,1.493-3.333,2.771-5.14,3.832c-4.041,2.374-8.539,3.543-13.374,2.756c-6.348-1.023-11.649-5.262-16.492-9.493
	c-18.773-16.466-35.349-35.426-49.257-56.173c-8.012-11.952-15.154-24.489-21.282-37.507c-9.515-20.243-17.018-42.099-32.292-58.446
	c-0.02-0.021-0.044-0.039-0.063-0.06c-1.296-1.382-2.699-2.689-4.142-3.957c-0.372-0.326-0.741-0.649-1.122-0.967
	c-1.457-1.217-2.964-2.387-4.536-3.473c-0.291-0.201-0.596-0.38-0.89-0.576c-1.381-0.919-2.8-1.778-4.25-2.583
	c-0.442-0.246-0.876-0.498-1.325-0.733c-1.662-0.872-3.358-1.668-5.084-2.377c-0.438-0.18-0.878-0.332-1.319-0.5
	c-1.493-0.571-3.001-1.077-4.522-1.513c-0.412-0.118-0.817-0.254-1.23-0.363c-1.781-0.465-3.574-0.818-5.369-1.083
	c-0.495-0.073-0.988-0.124-1.483-0.181c-1.638-0.189-3.275-0.3-4.904-0.305c-0.263-0.001-0.529-0.028-0.792-0.024
	c-1.797,0.028-3.574,0.214-5.334,0.482c-0.257,0.039-0.52,0.026-0.776,0.07c-0.428,0.075-0.846,0.197-1.271,0.287
	c-0.423,0.09-0.845,0.181-1.264,0.286c-0.794,0.199-1.578,0.435-2.357,0.689c-0.461,0.151-0.926,0.291-1.383,0.462
	c-0.749,0.279-1.484,0.608-2.217,0.942c-0.445,0.203-0.898,0.381-1.335,0.604c-1.046,0.531-2.072,1.124-3.078,1.774
	c-0.087,0.056-0.179,0.099-0.265,0.156c-1.913,1.263-3.615,2.725-5.186,4.294c-13.391,13.36-14.632,36.835-6.697,54.678
	c7.881,17.735,22.412,31.311,36.91,44.408c1.797,1.622,3.593,3.239,5.375,4.854c37.257,33.783,71.688,71.264,97.417,114.463
	c31.625,53.094,49.13,112.999,61.043,173.88c24.847-36.77,38.772-80.521,66.401-115.291c34.061-42.867,85.286-67.764,134.821-91.113
	c22.333-10.531,44.926-21.177,64.156-36.677c17.693-14.294,32.513-33.309,38.019-55.247c0.001-0.002,0.003-0.005,0.003-0.007
	C796.919,202.969,785.892,197.94,774.696,197.76z"/>
<path style="fill:#BA421E;" d="M331.535,130.748c7.834,16.757,22.173,29.386,33.973,43.642
	c18.216,22.015,30.514,48.221,45.783,72.385c15.255,24.17,34.797,47.301,61.403,57.752c10.967,4.312,23.279,6.266,34.587,2.936
	c12.784-3.788,22.786-13.844,30.47-24.743c13.544-19.22,21.627-42.244,23.04-65.71c1.227-20.28-2.388-40.487-5.228-60.609
	c-2.855-20.115-4.916-40.76-0.609-60.624c1.788-8.278,4.799-16.394,9.087-23.734c-0.157-0.025-0.314-0.025-0.471-0.049
	c-1.146-0.172-2.292-0.254-3.438-0.354c-0.856-0.075-1.712-0.186-2.566-0.219c-1.163-0.046-2.312,0.005-3.464,0.036
	c-0.825,0.022-1.655,0.003-2.473,0.066c-1.166,0.089-2.303,0.285-3.448,0.459c-0.777,0.118-1.566,0.188-2.33,0.345
	c-1.165,0.239-2.286,0.594-3.417,0.926c-0.704,0.208-1.428,0.361-2.117,0.605c-1.155,0.41-2.252,0.944-3.358,1.46
	c-0.612,0.285-1.251,0.51-1.845,0.827c-1.14,0.61-2.204,1.354-3.274,2.087c-0.497,0.34-1.03,0.615-1.51,0.982
	c-1.124,0.86-2.153,1.864-3.179,2.874c-0.357,0.352-0.758,0.638-1.103,1.009c-1.196,1.288-2.285,2.723-3.309,4.239
	c-0.116,0.171-0.259,0.303-0.373,0.477c-3.683,5.668-5.658,11.896-6.477,18.418c-1.789,14.228,1.93,29.862,5.498,44.169
	c2.478,9.932,4.754,20.078,6.517,30.292c3.907,22.639,5.199,45.615,0.069,67.393c-1.134,4.816-2.561,9.577-4.364,14.259
	c-1.926,4.992-4.731,10.07-8.228,14.34c-1.135,1.386-2.341,2.689-3.616,3.873v0.001c-1.608,1.493-3.333,2.771-5.14,3.832
	c-4.041,2.374-8.539,3.543-13.374,2.756c-6.348-1.023-11.649-5.262-16.492-9.493c-18.773-16.466-35.349-35.426-49.257-56.173
	c-8.012-11.952-15.154-24.489-21.282-37.507c-9.515-20.243-17.018-42.099-32.292-58.446c-0.02-0.021-0.044-0.039-0.063-0.06
	c-1.296-1.382-2.699-2.689-4.142-3.957c-0.372-0.326-0.741-0.649-1.122-0.967c-1.457-1.217-2.964-2.387-4.536-3.473
	c-0.291-0.201-0.596-0.38-0.89-0.576c-1.381-0.919-2.8-1.778-4.25-2.583c-0.442-0.246-0.876-0.498-1.325-0.733
	c-1.662-0.872-3.358-1.668-5.084-2.377c-0.438-0.18-0.878-0.332-1.319-0.5c-1.493-0.571-3.001-1.077-4.522-1.513
	c-0.412-0.118-0.817-0.254-1.23-0.363c-1.781-0.465-3.574-0.818-5.369-1.083c-0.495-0.073-0.988-0.124-1.483-0.181
	c-1.638-0.189-3.275-0.3-4.904-0.305c-0.263-0.001-0.529-0.028-0.792-0.024c-1.797,0.028-3.574,0.214-5.334,0.482
	c-0.257,0.039-0.52,0.026-0.776,0.07C326.473,115.337,328.202,123.615,331.535,130.748z"/>
<path style="fill:#BA421E;" d="M1583.567,580.82c-6.938,37.554-16.204,76.789-4.716,113.201c2.967,9.381,7.571,18.714,15.508,24.538
	c16.95,12.443,41.062,4.253,58.885-6.921c60.969-38.236,99.045-104.677,156.945-147.42c4.175-3.079,8.526-6.143,12.287-9.683
	c-0.317-0.374-0.68-0.681-1.017-1.024c-0.348-0.353-0.679-0.733-1.049-1.054c-0.505-0.44-1.054-0.812-1.597-1.193
	c-0.301-0.212-0.58-0.459-0.891-0.653c-0.864-0.538-1.77-1.006-2.709-1.415c-0.359-0.157-0.744-0.264-1.114-0.403
	c-0.614-0.229-1.223-0.466-1.861-0.648c-0.44-0.124-0.899-0.206-1.35-0.308c-0.596-0.135-1.189-0.277-1.802-0.375
	c-0.486-0.076-0.987-0.118-1.481-0.172c-0.603-0.065-1.203-0.133-1.818-0.165c-0.516-0.027-1.041-0.026-1.565-0.03
	c-0.612-0.005-1.223-0.007-1.842,0.018c-0.539,0.022-1.082,0.064-1.625,0.108c-0.619,0.05-1.237,0.106-1.861,0.184
	c-0.55,0.068-1.104,0.15-1.659,0.239c-0.623,0.1-1.242,0.211-1.867,0.335c-0.557,0.111-1.115,0.231-1.671,0.361
	c-0.625,0.147-1.247,0.307-1.871,0.476c-0.552,0.15-1.103,0.302-1.651,0.469c-0.63,0.192-1.253,0.4-1.878,0.614
	c-0.534,0.183-1.068,0.362-1.598,0.56c-0.636,0.237-1.262,0.495-1.89,0.753c-0.503,0.207-1.009,0.408-1.506,0.628
	c-0.657,0.29-1.296,0.603-1.938,0.914c-0.45,0.218-0.905,0.426-1.346,0.654c-0.715,0.368-1.405,0.759-2.096,1.151
	c-0.347,0.196-0.705,0.381-1.045,0.583c-1.022,0.606-2.016,1.234-2.971,1.885c-4.822,3.291-9.333,6.937-13.705,10.744
	c-39.861,34.713-63.177,88.354-108.448,116.362c-4.126,2.553-8.786,4.704-13.633,6.336c-1.848,0.622-3.714,1.193-5.601,1.646
	c-15.05,3.608-30.803,1.52-38.188-11.237c-5.241-9.056-3.999-20.149-1.943-30.59c0.242-1.235,0.492-2.466,0.749-3.678
	c1.029-4.878,2.063-9.753,3.094-14.631c4.31-20.402,8.623-40.8,12.941-61.206c0.619-2.94,1.232-5.904,1.786-8.879
	c0.2-1.073,0.379-2.148,0.559-3.224c1.493-8.925,2.21-17.928,0.334-26.72c-0.068-0.32-0.19-0.632-0.266-0.95
	c-0.302-1.258-0.624-2.514-1.055-3.746c-0.197-0.563-0.473-1.098-0.696-1.652c-0.39-0.968-0.759-1.945-1.225-2.88
	c-0.313-0.627-0.701-1.208-1.047-1.815c-0.466-0.818-0.903-1.651-1.425-2.428c-0.422-0.629-0.916-1.194-1.375-1.792
	c-0.53-0.691-1.033-1.404-1.608-2.049c-0.519-0.579-1.101-1.08-1.654-1.617c-0.597-0.58-1.169-1.187-1.805-1.713
	c-0.592-0.488-1.24-0.885-1.864-1.322c-0.672-0.471-1.323-0.97-2.031-1.376c-0.651-0.373-1.35-0.644-2.029-0.958
	c-0.747-0.346-1.477-0.72-2.257-0.989c-0.701-0.242-1.442-0.372-2.167-0.547c-0.681-0.165-1.332-0.41-2.033-0.513
	C1591.582,530.426,1588.103,556.299,1583.567,580.82z"/>
<path style="fill:#F6D75C;" d="M711.013,1130.269c11.011-11.676,2.08-34.029-1.116-46.816c-3.06-12.236-4.512-24.869-4.312-37.481
	c0.093-6.115,0.555-12.385-1.296-18.214c-1.856-5.829-6.743-11.215-12.857-11.452c-8.063-0.312-13.7,7.876-16.473,15.457
	c-9.008,24.645-10.27,74.955,10.003,94.962C692.045,1133.721,703.125,1138.632,711.013,1130.269z"/>
<path style="fill:#F6D75C;" d="M764.352,1049.01c-4.955-0.811-9.788,2.85-11.927,7.393c-2.139,4.546-2.173,9.766-2.022,14.787
	c0.156,5.021,0.439,10.173-1.15,14.938c-2.894,8.679-14.904,21.047-5.076,29.936c7.547,6.826,23.858,0.855,27.62-7.656
	c1.354-3.065,1.476-6.509,1.579-9.856c0.287-9.528,0.575-19.055,0.863-28.585c0.126-4.236,0.239-8.582-1.135-12.592
	C771.734,1053.363,768.538,1049.694,764.352,1049.01z"/>
<path style="fill:#E25D2C;" d="M1654.354,1491.124c-9.92-7.442-22.519-10.19-34.758-12.19c-27.381-4.49-55.206-6.221-82.918-5.157
	c-18.568,0.699-37.598,2.602-55.391-2.794c-14.158-4.302-26.271-13.079-35.761-24.395c-25.428-1.968-49.885-3.064-77.238,5.65
	c-4.204,1.349-8.409,2.857-12.331,4.843c0.097,9.6-1.491,19.013-5.589,28.092c-9.919,21.937-32.458,35.364-54.933,44.015
	c-22.475,8.665-46.47,14.126-66.918,26.855c-20.443,12.745-37.218,35.474-33.788,59.315c0.237,1.653,0.642,3.266,1.135,4.85
	c0.173,0.553,0.402,1.081,0.604,1.623c0.378,1.018,0.781,2.026,1.255,3.005c0.29,0.601,0.608,1.182,0.931,1.767
	c0.496,0.893,1.027,1.766,1.595,2.618c0.373,0.559,0.743,1.113,1.146,1.653c0.648,0.869,1.346,1.699,2.063,2.515
	c0.395,0.448,0.763,0.911,1.177,1.342c1.142,1.19,2.342,2.328,3.615,3.375c0.119,0.098,0.25,0.18,0.371,0.277
	c1.203,0.969,2.459,1.869,3.754,2.696c0.443,0.283,0.901,0.524,1.353,0.789c1.01,0.592,2.031,1.155,3.078,1.655
	c0.507,0.242,1.016,0.46,1.53,0.68c1.055,0.451,2.123,0.851,3.201,1.201c0.297,0.096,0.583,0.243,0.882,0.331v0.017
	c0.35,0.103,0.704,0.165,1.056,0.257c0.386,0.102,0.773,0.195,1.162,0.284c0.94,0.213,1.882,0.38,2.826,0.51
	c0.388,0.053,0.774,0.121,1.161,0.161c1.223,0.124,2.443,0.187,3.656,0.161c0.077-0.001,0.154,0.009,0.23,0.006
	c1.269-0.036,2.525-0.18,3.769-0.391c0.4-0.067,0.791-0.173,1.186-0.259c0.859-0.187,1.708-0.41,2.546-0.687
	c0.434-0.143,0.864-0.301,1.291-0.469c0.824-0.324,1.631-0.707,2.427-1.126c0.37-0.195,0.745-0.371,1.109-0.587
	c1.132-0.673,2.241-1.42,3.296-2.304c7.445-6.239,11.05-15.793,15.43-24.475c29.442-58.331,111.089-82.855,167.786-50.38
	c20.346,11.652,36.789,28.872,54.489,44.253c17.696,15.364,37.935,29.474,61.155,32.648c1.37,0.187,2.753,0.317,4.141,0.406
	c0.469,0.031,0.941,0.033,1.41,0.052c0.926,0.038,1.852,0.07,2.782,0.066c0.554-0.003,1.108-0.027,1.664-0.045
	c0.848-0.026,1.694-0.061,2.542-0.123c0.588-0.042,1.175-0.099,1.763-0.159c0.816-0.083,1.629-0.179,2.442-0.293
	c0.595-0.084,1.19-0.173,1.782-0.273c0.807-0.137,1.605-0.295,2.405-0.464c0.585-0.123,1.171-0.242,1.75-0.382
	c0.815-0.196,1.62-0.421,2.425-0.65c0.547-0.155,1.099-0.298,1.64-0.469c0.91-0.286,1.804-0.61,2.696-0.937
	c0.418-0.153,0.844-0.286,1.257-0.448c1.262-0.495,2.5-1.035,3.716-1.614c0.481-0.229,0.941-0.489,1.414-0.731
	c0.748-0.383,1.496-0.764,2.223-1.179c0.539-0.309,1.06-0.644,1.587-0.97c0.63-0.391,1.259-0.782,1.868-1.197
	c0.539-0.367,1.062-0.751,1.583-1.137c0.563-0.417,1.118-0.84,1.661-1.279c0.52-0.421,1.029-0.852,1.53-1.293
	c0.504-0.444,0.991-0.901,1.475-1.366c0.491-0.473,0.978-0.948,1.447-1.442c0.444-0.47,0.867-0.961,1.29-1.45
	c0.459-0.53,0.923-1.054,1.354-1.605c0.368-0.471,0.703-0.968,1.051-1.456c0.435-0.61,0.885-1.208,1.288-1.843
	c0.005-0.007,0.01-0.013,0.015-0.02c0.105-0.164,0.185-0.343,0.287-0.508c0.609-0.985,1.192-1.984,1.713-3.023
	c0.626-1.252,1.191-2.543,1.683-3.881c2.412-6.555,2.889-14.475-1.335-20.031c-2.855-3.776-7.381-5.856-11.791-7.618
	c-43.366-17.283-94.489-18.141-130.596-47.727c-10.841-8.889-18.495-28.475-5.954-34.745c4.999-2.492,10.967-1.191,16.38,0.175
	c45.505,11.396,90.996,22.792,136.502,34.188c21.525,5.398,51.284,6.714,58.616-14.237
	C1670.797,1511.932,1664.293,1498.568,1654.354,1491.124z"/>
<path style="fill:#F6D75C;" d="M1457.959,1206.854c8.258-14.098,22.962-23.934,29.525-38.899c3.547-8.099,3.197-19.678-4.818-23.42
	c-5.915-2.762-13.194,0.465-17.291,5.547c-4.098,5.082-5.847,11.596-7.864,17.803c-2.022,6.207-4.633,12.614-9.807,16.596
	c-4.341,3.347-9.915,4.534-15.001,6.575c-11.07,4.436-20.248,13.376-24.984,24.319c-12.648,29.262,20.823,49.391,37.486,19.752
	C1450.276,1226.106,1452.726,1215.784,1457.959,1206.854z"/>
<path style="fill:#F6D75C;" d="M1340.142,1172.193c5.901-3.301,10.159-9.089,16.219-12.073c5.038-2.48,10.826-2.792,16.268-4.153
	c7.278-1.818,14.056-5.601,19.425-10.838c1.486-1.447,2.928-3.135,3.215-5.189c0.468-3.379-2.533-6.47-5.851-7.257
	c-3.318-0.784-6.782,0.161-10.002,1.286c-11.946,4.178-23.372,10.994-36.024,11.321c-6.874,0.178-14.168-1.53-20.37,1.437
	c-6.573,3.148-16.765,15.864-10.431,23.035C1318.481,1176.427,1333.175,1176.094,1340.142,1172.193z"/>
<path style="fill:#F6D75C;" d="M1244.313,1189.67c4.682,1.69,10.027,0.253,14.193-2.475c2.192-1.435,4.17-3.22,6.538-4.346
	c3.323-1.581,7.167-1.747,10.533-3.233c2.914-1.284,5.325-3.493,7.435-5.876c1.501-1.696,2.914-3.549,3.591-5.71
	c2.095-6.704-4.589-10.336-10.075-7.194c-5.194,2.975-8.029,7.89-14.402,9.432c-4.326,1.047-8.867,0.445-13.296,0.916
	c-4.424,0.468-9.208,2.475-10.801,6.631C1236.249,1182.469,1239.626,1187.977,1244.313,1189.67z"/>
<path style="fill:#BA421E;" d="M1588.804,1624.261c-19.41,1.715-39.079-3.445-56.774-11.125
	c-31.255-13.589-62.095-31.174-91.235-48.556c-18.587-11.094-37.252-20.791-59.045-24.283c-28.726-4.604-59.157-1.016-84.818,12.682
	c-28.507,15.204-49.316,41.474-67.41,68.234c-4.253,6.302-8.59,13.35-7.844,20.903c0.112,1.238,0.385,2.444,0.745,3.618v0.017
	c0.35,0.103,0.704,0.165,1.056,0.257c0.386,0.102,0.773,0.195,1.162,0.284c0.94,0.213,1.882,0.38,2.826,0.51
	c0.388,0.053,0.774,0.121,1.161,0.161c1.223,0.124,2.443,0.187,3.656,0.161c0.077-0.001,0.154,0.009,0.23,0.006
	c1.269-0.036,2.525-0.18,3.769-0.391c0.4-0.067,0.791-0.173,1.186-0.259c0.859-0.187,1.708-0.41,2.546-0.687
	c0.434-0.143,0.864-0.301,1.291-0.469c0.824-0.324,1.631-0.707,2.427-1.126c0.37-0.195,0.745-0.371,1.109-0.587
	c1.132-0.673,2.241-1.42,3.296-2.304c7.445-6.239,11.05-15.793,15.43-24.475c29.442-58.331,111.089-82.855,167.786-50.38
	c20.346,11.652,36.789,28.872,54.489,44.253c17.696,15.364,37.935,29.474,61.155,32.648c1.37,0.187,2.753,0.317,4.141,0.406
	c0.469,0.031,0.941,0.033,1.41,0.052c0.926,0.038,1.852,0.07,2.782,0.066c0.554-0.003,1.108-0.027,1.664-0.045
	c0.848-0.026,1.694-0.061,2.542-0.123c0.588-0.042,1.175-0.099,1.763-0.159c0.816-0.083,1.629-0.179,2.442-0.293
	c0.595-0.084,1.19-0.173,1.782-0.273c0.807-0.137,1.605-0.295,2.405-0.464c0.585-0.123,1.171-0.242,1.75-0.382
	c0.815-0.196,1.62-0.421,2.425-0.65c0.547-0.155,1.099-0.298,1.64-0.469c0.91-0.286,1.804-0.61,2.696-0.937
	c0.418-0.153,0.844-0.286,1.257-0.448c1.262-0.495,2.5-1.035,3.716-1.614c0.481-0.229,0.941-0.489,1.414-0.731
	c0.748-0.383,1.496-0.764,2.223-1.179c0.539-0.309,1.06-0.644,1.587-0.97c0.63-0.391,1.259-0.782,1.868-1.197
	c0.539-0.367,1.062-0.751,1.583-1.137c0.563-0.417,1.118-0.84,1.661-1.279c0.52-0.421,1.029-0.852,1.53-1.293
	c0.504-0.444,0.991-0.901,1.475-1.366c0.491-0.473,0.978-0.948,1.447-1.442c0.444-0.47,0.867-0.961,1.29-1.45
	c0.459-0.53,0.923-1.054,1.354-1.605c0.368-0.471,0.703-0.968,1.051-1.456c0.435-0.61,0.885-1.208,1.288-1.843
	c0.005-0.007,0.01-0.013,0.015-0.02C1596.96,1622.673,1592.79,1623.927,1588.804,1624.261z"/>
<path style="fill:#385B3E;" d="M727.417,870.805c16.935,0.414,34.109-6.777,48.268-16.617c2.714-1.89,4.779-4.049,6.192-6.239
	c5.047-7.842,1.666-15.919-10.875-11.937l-0.048,0.017c-16.409,5.269-33.062,2.38-48.678-4.778
	c-16.794-7.698-31.206-19.666-45.398-31.508c-52.502-43.808-105.578-88.36-145.228-144.087
	c4.823,14.032,10.855,27.571,18.665,40.316c16.57,27.045,40.234,48.853,63.601,70.312c35.061,32.201,70.505,64.046,105.231,96.612
	c1.682,1.578,3.385,3.137,5.063,4.718C725.195,868.552,726.277,869.617,727.417,870.805z"/>
<path style="fill:#E25D2C;" d="M684.501,1902.652c-0.025-0.259-0.058-0.513-0.09-0.77c-0.195-1.578-0.492-3.134-0.918-4.652
	c-0.062-0.224-0.14-0.44-0.207-0.661c-0.471-1.543-1.049-3.052-1.778-4.498c-0.071-0.139-0.157-0.269-0.229-0.407
	c-0.795-1.51-1.711-2.97-2.812-4.336c-9.491-11.761-26.3-13.588-41.062-16.889c-63.517-14.268-102.485-65.552-144.434-110.55
	c-2.826,3.62-5.671,7.255-8.955,10.446c-11.6,11.269-28.965,16.285-44.789,12.936c-6.446-1.366-12.54-4-18.699-6.429
	c-11.41,20.714-22.426,44.443-36.965,56.236c-28.555,23.157-64.648,35.267-100.887,41.442c-13.744,2.348-28.424,4.236-39.171,13.142
	c-22.207,18.412-12.317,58.504,13.062,72.202c9.16,4.936,20.619,7.221,29.905,2.524c5.442-2.745,9.506-7.54,13.539-12.112
	c34.631-39.218,78.027-70.677,126.071-91.408c4.794-2.063,10.494-3.983,14.986-1.332c3.902,2.316,5.301,7.223,6.124,11.698
	c7.888,43.062-7.366,87.693-31.615,124.153c-6.782,10.19-14.636,21.459-12.492,33.506c0.219,1.223,0.576,2.397,0.988,3.546
	c0.078,0.218,0.152,0.438,0.236,0.653c0.083,0.212,0.145,0.433,0.232,0.642c0.329,0.761,0.742,1.481,1.148,2.203
	c0.116,0.206,0.206,0.426,0.328,0.628c0.66,1.097,1.403,2.145,2.227,3.14c0.138,0.168,0.301,0.317,0.443,0.481
	c0.692,0.799,1.422,1.568,2.205,2.292c0.303,0.281,0.629,0.54,0.944,0.81c0.672,0.575,1.359,1.129,2.081,1.649
	c0.372,0.268,0.751,0.524,1.135,0.777c0.725,0.479,1.467,0.927,2.227,1.35c0.395,0.219,0.786,0.44,1.188,0.644
	c0.828,0.42,1.672,0.793,2.528,1.146c0.354,0.146,0.703,0.312,1.061,0.447c1.222,0.458,2.458,0.862,3.708,1.178
	c10.684,2.714,21.968,1.128,32.809-0.904c14.601-2.745,30.49-7.223,38.587-19.666c9.282-14.3,4.712-33.045,0.887-49.664
	c-8.667-37.73-11.698-76.758-8.95-115.376c0.41-5.729,1.35-12.19,6.046-15.491c5.842-4.109,13.871-0.984,20.029,2.619
	c30.144,17.586,54.363,45.108,67.966,77.25c7.002,16.509,15.206,37.413,33.111,38.538c7.361,0.477,14.377-2.889,20.979-6.204
	c14.305-7.206,28.999-14.984,38.636-27.761c0.672-0.876,1.296-1.799,1.891-2.737c0.008-0.014,0.02-0.026,0.028-0.04
	c0.015-0.023,0.024-0.048,0.039-0.071c1.971-3.102,3.569-6.489,4.73-10.005c0.025-0.077,0.054-0.151,0.079-0.227
	c0.541-1.666,0.965-3.362,1.297-5.068c0.037-0.184,0.078-0.366,0.111-0.55c0.298-1.643,0.484-3.293,0.575-4.939
	c0.014-0.244,0.027-0.485,0.036-0.729C684.708,1905.839,684.66,1904.236,684.501,1902.652z"/>
<path style="fill:#385B3E;" d="M750.228,1245.231c-1.701-25.822-15.225-50.982-34.826-67.25c-3.367,14.633-0.127,33.87-2.553,46.507
	c-4.765,24.823-14.972,48.584-28.78,69.693c-27.649,42.331-67.839,74.711-108.151,105.218
	c-67.845,51.33-140.525,100.564-222.804,120.801c3.751,2.931,7.403,5.961,10.952,9.096c3.451,0.449,6.915,0.808,10.4,1.017
	c76.409-34.982,152.009-71.725,226.733-110.168c36.175-18.602,72.697-38.015,101.71-66.521c7.267-7.14,14.029-14.958,20.042-23.303
	C740.944,1305.349,752.226,1275.652,750.228,1245.231z"/>
<path style="fill:#F6D75C;" d="M482.37,1351.379c40.838,15.676,42.958-28.08,60.794-49.045c8.186-9.625,21.311-13.084,32.215-19.469
	c13.759-8.061,24.341-21.403,29.047-36.643c1.564-5.069,2.412-10.894-0.346-15.428c-3.766-6.19-12.848-7.106-19.43-4.073
	c-6.578,3.03-11.318,8.896-16.093,14.346c-9.988,11.386-21.354,21.873-34.904,28.638c-14.412,7.194-30.743,9.915-45.086,17.24
	C464.1,1299.445,449.761,1338.861,482.37,1351.379z"/>
<path style="fill:#F6D75C;" d="M558.345,1356.317c-3.313,2.149-7.201,3.264-10.567,5.332c-3.362,2.068-6.329,5.613-5.905,9.54
	c0.414,3.83,4.024,6.704,7.8,7.457c3.781,0.755,7.674-0.166,11.376-1.238c8.516-2.468,17.335-6.198,22.168-13.632
	c2.787-4.285,3.966-9.391,6.09-14.034c3.478-7.583,9.598-13.924,17.057-17.661c8.098-4.059,18.373-5.712,23.035-13.479
	c16.244-27.04-29.35-21.479-41.018-13.805C569.634,1317.119,576.265,1344.685,558.345,1356.317z"/>
<path style="fill:#F6D75C;" d="M366.121,1426.437c8.234,7.452,20.882,8.879,31.279,4.982c4.199-1.576,8.166-3.985,11.079-7.398
	c6.319-7.401,6.982-18.446,13.413-25.746c4.692-5.33,11.971-8.064,16.054-13.873c7.898-11.24-1.866-31.505-15.274-20.031
	c-12.945,11.074-20.546,24.918-36.005,33.927c-9.228,5.379-20.385,10.669-22.821,21.072c-0.317,1.349-0.453,2.796,0.02,4.1
	C364.299,1424.646,365.191,1425.594,366.121,1426.437z"/>
<path style="fill:#BA421E;" d="M660.372,1929.961c-15.045,0.317-30.87,0.254-44.044-7.001c-7.825-4.333-14.144-10.903-20.317-17.379
	c-23.269-24.397-46.538-48.792-69.822-73.188c-9.997-10.49-22.806-21.919-36.984-18.855c-9.237,2-16.234,10.095-19.298,19.031
	c-3.079,8.935-2.826,18.65-2.003,28.063c3.781,43.123,18.48,88.139,2.29,128.277c-4.351,10.777-11.225,21.047-21.384,26.697
	c-8.696,4.843-18.918,5.873-28.521,8.541c-5.588,1.554-11.284,4-15.746,7.586c0.329,0.761,0.742,1.481,1.148,2.203
	c0.116,0.206,0.206,0.426,0.328,0.628c0.66,1.097,1.403,2.145,2.227,3.14c0.138,0.168,0.301,0.317,0.443,0.481
	c0.692,0.799,1.422,1.568,2.205,2.292c0.303,0.281,0.629,0.54,0.944,0.81c0.672,0.575,1.359,1.129,2.081,1.649
	c0.372,0.268,0.751,0.524,1.135,0.777c0.725,0.479,1.467,0.927,2.227,1.35c0.395,0.219,0.786,0.44,1.188,0.644
	c0.828,0.42,1.672,0.793,2.528,1.146c0.354,0.146,0.703,0.312,1.061,0.447c1.222,0.458,2.458,0.862,3.708,1.178
	c10.684,2.714,21.968,1.128,32.809-0.904c14.601-2.745,30.49-7.223,38.587-19.666c9.282-14.3,4.712-33.045,0.887-49.664
	c-8.667-37.73-11.698-76.758-8.95-115.376c0.41-5.729,1.35-12.19,6.046-15.491c5.842-4.109,13.871-0.984,20.029,2.619
	c30.144,17.586,54.363,45.108,67.966,77.25c7.002,16.509,15.206,37.413,33.111,38.538c7.361,0.477,14.377-2.889,20.979-6.204
	c14.305-7.206,28.999-14.984,38.636-27.761c0.672-0.876,1.296-1.799,1.891-2.737c0.008-0.014,0.02-0.026,0.028-0.04
	C671.992,1929.737,666.073,1929.832,660.372,1929.961z"/>
</svg>
